<?xml version="1.0" encoding="UTF-8" standalone="no"?>
<!DOCTYPE svg PUBLIC "-//W3C//DTD SVG 1.1//EN" "http://www.w3.org/Graphics/SVG/1.1/DTD/svg11.dtd">
<svg width="100%" height="100%" viewBox="0 0 752 499" version="1.1" xmlns="http://www.w3.org/2000/svg" xmlns:xlink="http://www.w3.org/1999/xlink" xml:space="preserve" xmlns:serif="http://www.serif.com/" style="fill-rule:evenodd;clip-rule:evenodd;stroke-linecap:round;">
    <g id="svgGroup">
        <path id="front_outsideCutPath" d="M0,324.283L0,368.787L9.071,368.787L9.071,397.134L0,397.134L0,425.48L9.071,425.48L9.071,453.827L0,453.827L0,498.331L23.244,498.331L23.244,489.26L51.591,489.26L51.591,498.331L79.937,498.331L79.937,489.26L108.283,489.26L108.283,498.331L136.63,498.331L136.63,489.26L164.976,489.26L164.976,498.331L193.323,498.331L193.323,489.26L221.669,489.26L221.669,498.331L244.913,498.331L244.913,453.827L235.843,453.827L235.843,425.48L244.913,425.48L244.913,397.134L235.843,397.134L235.843,368.787L244.913,368.787L244.913,340.441L244.913,324.283L221.669,324.283L221.669,333.354L193.323,333.354L193.323,324.283L164.976,324.283L164.976,333.354L136.63,333.354L136.63,324.283L108.283,324.283L108.283,333.354L79.937,333.354L79.937,324.283L51.591,324.283L51.591,333.354L23.244,333.354L23.244,324.283L0,324.283Z" style="fill:none;stroke:rgb(255,0,0);stroke-width:0.28px;"/>
        <g id="front_labelLayer" transform="matrix(0.477811,0,0,0.477811,-10.5766,272.185)">
            <path d="M147.824,424.454L145.003,424.454L145.003,412.404C145.006,411.985 144.976,411.566 144.913,411.151C144.767,410.246 144.452,409.53 143.966,409.003C143.274,408.256 142.192,407.883 140.72,407.883C139.435,407.883 138.377,408.111 137.546,408.569C137.125,408.797 136.75,409.1 136.437,409.462C135.53,410.516 135.077,412.256 135.077,414.68L135.077,424.454L132.256,424.454L132.256,405.825L134.549,405.825L135.009,408.376L135.145,408.376C135.723,407.458 136.534,406.746 137.577,406.242C138.43,405.833 139.352,405.587 140.295,405.516C140.55,405.495 140.805,405.485 141.06,405.485C141.696,405.481 142.33,405.531 142.957,405.635C143.639,405.754 144.25,405.942 144.791,406.199C145.282,406.429 145.732,406.736 146.126,407.109C146.661,407.633 147.068,408.273 147.317,408.98C147.655,409.893 147.824,411 147.824,412.302L147.824,424.454ZM93.623,405.825L93.623,408.019L88.88,408.019L88.88,424.454L86.057,424.454L86.057,408.019L82.726,408.019L82.726,406.743L86.057,405.723L86.057,404.685C86.048,403.814 86.138,402.945 86.326,402.094C86.876,399.738 88.277,398.356 90.53,397.947C91.035,397.859 91.546,397.817 92.058,397.82C92.489,397.822 92.919,397.856 93.345,397.919C94.012,398.014 94.739,398.179 95.525,398.415L94.793,400.674C94.442,400.56 94.087,400.46 93.728,400.374C93.37,400.291 93.033,400.23 92.716,400.192C92.48,400.164 92.244,400.148 92.007,400.147C91.698,400.145 91.389,400.18 91.089,400.252C90.507,400.384 89.993,400.725 89.646,401.21C89.135,401.919 88.88,403.054 88.88,404.617L88.88,405.825L93.623,405.825ZM162.187,422.124L162.187,424.284C162.08,424.335 161.971,424.378 161.858,424.414C161.624,424.492 161.34,424.561 161.005,424.621C160.948,424.631 160.892,424.641 160.835,424.65C160.24,424.746 159.705,424.794 159.231,424.794C158.495,424.806 157.762,424.708 157.056,424.502C154.902,423.837 153.825,422.036 153.825,419.1L153.825,408.019L151.155,408.019L151.155,406.658L153.825,405.485L155.015,401.508L156.645,401.508L156.645,405.825L162.051,405.825L162.051,408.019L156.645,408.019L156.645,418.98C156.645,420.103 156.912,420.965 157.445,421.566C157.862,422.034 158.433,422.338 159.055,422.422C159.247,422.451 159.441,422.465 159.636,422.464C160.09,422.465 160.544,422.433 160.994,422.368C161.023,422.363 161.052,422.359 161.082,422.354C161.218,422.333 161.354,422.31 161.49,422.286C161.749,422.237 161.969,422.186 162.15,422.135C162.163,422.132 162.175,422.128 162.187,422.124ZM107.745,405.689L107.354,408.308C106.713,408.166 106.135,408.083 105.619,408.059C105.518,408.054 105.417,408.052 105.316,408.053C103.947,408.044 102.636,408.61 101.704,409.612C101.617,409.701 101.532,409.793 101.449,409.887C100.378,411.111 99.842,412.636 99.842,414.459L99.842,424.454L97.021,424.454L97.021,405.825L99.349,405.825L99.672,409.275L99.808,409.275C100.113,408.734 100.47,408.224 100.874,407.752C101.293,407.264 101.775,406.833 102.308,406.471C103.281,405.814 104.352,405.485 105.52,405.485C105.907,405.484 106.294,405.501 106.679,405.536C107.037,405.566 107.393,405.618 107.745,405.689ZM125.014,422.235C125.369,421.838 125.683,421.407 125.952,420.948C126.857,419.4 127.31,417.458 127.31,415.123C127.31,413.915 127.182,412.809 126.927,411.806C126.595,410.43 125.936,409.154 125.005,408.087C124.093,407.042 122.905,406.275 121.578,405.873C120.675,405.606 119.736,405.475 118.794,405.485C118.134,405.482 117.474,405.539 116.824,405.655C115.145,405.926 113.609,406.764 112.47,408.027C111.463,409.152 110.789,410.573 110.449,412.291C110.272,413.224 110.187,414.173 110.194,415.123C110.19,415.889 110.249,416.654 110.37,417.41C110.525,418.396 110.821,419.354 111.249,420.256C111.313,420.392 111.381,420.526 111.453,420.659C112.097,421.88 113.06,422.903 114.239,423.621C114.804,423.963 115.41,424.232 116.042,424.423C116.897,424.676 117.784,424.801 118.675,424.794C119.317,424.797 119.957,424.743 120.589,424.633C122.295,424.365 123.858,423.518 125.014,422.235ZM113.717,419.04C113.917,419.585 114.196,420.098 114.545,420.562C115.278,421.523 116.359,422.16 117.556,422.334C117.948,422.4 118.345,422.432 118.743,422.43C119.327,422.436 119.908,422.363 120.472,422.215C121.459,421.959 122.331,421.38 122.95,420.571C123.908,419.329 124.387,417.513 124.387,415.123C124.391,414.451 124.346,413.781 124.254,413.116C124.156,412.435 124.003,411.819 123.795,411.267C123.593,410.714 123.308,410.194 122.95,409.725C122.237,408.812 121.207,408.198 120.064,408.005C119.618,407.921 119.164,407.88 118.709,407.883C116.861,407.883 115.467,408.489 114.528,409.7C114.129,410.228 113.822,410.82 113.621,411.452C113.285,412.463 113.117,413.686 113.117,415.123C113.117,416.666 113.317,417.972 113.717,419.04Z" style="fill:rgb(119,119,119);stroke:rgb(119,119,119);stroke-width:2.01px;"/>
        </g>
        <path id="left_outsideCutPath" d="M262.488,324.283L262.488,368.787L253.417,368.787L253.417,397.134L262.488,397.134L262.488,425.48L253.417,425.48L253.417,453.827L262.488,453.827L262.488,498.331L276.661,498.331L276.661,489.26L305.008,489.26L305.008,498.331L333.354,498.331L333.354,489.26L361.701,489.26L361.701,498.331L390.047,498.331L390.047,489.26L418.394,489.26L418.394,498.331L446.74,498.331L446.74,489.26L475.087,489.26L475.087,498.331L489.26,498.331L489.26,453.827L498.331,453.827L498.331,425.48L489.26,425.48L489.26,397.134L498.331,397.134L498.331,368.787L489.26,368.787L489.26,340.441L489.26,324.283L475.087,324.283L475.087,333.354L446.74,333.354L446.74,324.283L418.394,324.283L418.394,333.354L390.047,333.354L390.047,324.283L361.701,324.283L361.701,333.354L333.354,333.354L333.354,324.283L305.008,324.283L305.008,333.354L276.661,333.354L276.661,324.283L262.488,324.283Z" style="fill:none;stroke:rgb(255,0,0);stroke-width:0.28px;"/>
        <g id="left_labelLayer" transform="matrix(0.5,0,0,0.5,107.848,150.241)">
            <path d="M388.256,405.825L388.256,408.019L383.513,408.019L383.513,424.454L380.693,424.454L380.693,408.019L377.362,408.019L377.362,406.743L380.693,405.723L380.693,404.685C380.683,403.814 380.772,402.945 380.959,402.094C381.509,399.738 382.911,398.356 385.163,397.947C385.669,397.859 386.181,397.816 386.694,397.82C387.124,397.822 387.553,397.856 387.978,397.919C388.645,398.014 389.373,398.179 390.161,398.415L389.429,400.674C389.078,400.56 388.723,400.46 388.363,400.374C388.004,400.291 387.667,400.23 387.351,400.192C387.116,400.164 386.88,400.148 386.643,400.147C386.334,400.145 386.025,400.18 385.724,400.252C385.142,400.384 384.627,400.725 384.279,401.21C383.769,401.919 383.513,403.054 383.513,404.617L383.513,405.825L388.256,405.825ZM375.049,413.864L375.049,415.65L362.217,415.65C362.273,417.836 362.826,419.496 363.875,420.63C364.922,421.762 366.398,422.328 368.303,422.328C370.217,422.322 372.112,421.946 373.884,421.223C374.007,421.174 374.128,421.124 374.25,421.072L374.25,423.587C373.746,423.806 373.231,424.001 372.708,424.171C372.285,424.307 371.855,424.422 371.421,424.514C371.032,424.594 370.639,424.654 370.244,424.695C369.628,424.761 368.947,424.794 368.201,424.794C367.276,424.802 366.354,424.692 365.457,424.468C364.015,424.114 362.704,423.354 361.681,422.277C360.722,421.25 360.039,419.995 359.697,418.632C359.466,417.768 359.335,416.825 359.303,415.803C359.297,415.633 359.294,415.463 359.294,415.293C359.294,412.29 360.033,409.905 361.511,408.138C362.814,406.554 364.731,405.597 366.78,405.507C367.01,405.492 367.239,405.484 367.469,405.485C368.287,405.477 369.103,405.585 369.89,405.808C371.099,406.154 372.183,406.843 373.011,407.789C373.907,408.816 374.523,410.057 374.797,411.392C374.97,412.205 375.055,413.033 375.049,413.864ZM400.221,422.124L400.221,424.284C400.114,424.335 400.004,424.378 399.892,424.414C399.658,424.492 399.373,424.561 399.039,424.621C398.983,424.631 398.927,424.641 398.871,424.65C398.276,424.746 397.74,424.794 397.264,424.794C396.53,424.806 395.798,424.707 395.093,424.502C392.937,423.837 391.859,422.036 391.859,419.1L391.859,408.019L389.191,408.019L389.191,406.658L391.859,405.485L393.049,401.508L394.682,401.508L394.682,405.825L400.085,405.825L400.085,408.019L394.682,408.019L394.682,418.98C394.682,420.103 394.947,420.965 395.478,421.566C395.896,422.035 396.469,422.339 397.091,422.422C397.284,422.451 397.478,422.465 397.672,422.464C398.127,422.465 398.581,422.433 399.03,422.368C399.06,422.363 399.089,422.359 399.118,422.354C399.254,422.333 399.389,422.31 399.523,422.286C399.784,422.237 400.004,422.186 400.184,422.135C400.196,422.132 400.209,422.128 400.221,422.124ZM354.348,398.007L354.348,424.454L351.527,424.454L351.527,398.007L354.348,398.007ZM362.285,413.354L372.025,413.354C372.027,412.836 371.989,412.32 371.908,411.809C371.818,411.257 371.675,410.76 371.48,410.318C371.316,409.938 371.098,409.584 370.834,409.266C370.241,408.562 369.415,408.092 368.507,407.942C368.153,407.878 367.795,407.847 367.435,407.849C366.892,407.844 366.35,407.918 365.828,408.07C365.07,408.294 364.388,408.722 363.858,409.309C363.053,410.191 362.547,411.379 362.341,412.872C362.319,413.032 362.3,413.193 362.285,413.354Z" style="fill:rgb(119,119,119);stroke:rgb(119,119,119);stroke-width:2.01px;"/>
        </g>
        <path id="top_outsideCutPath" d="M515.906,262.488L515.906,276.661L506.835,276.661L506.835,305.008L515.906,305.008L515.906,333.354L506.835,333.354L506.835,361.701L515.906,361.701L515.906,390.047L506.835,390.047L506.835,418.394L515.906,418.394L515.906,446.74L506.835,446.74L506.835,475.087L515.906,475.087L515.906,489.26L530.079,489.26L530.079,498.331L558.425,498.331L558.425,489.26L586.772,489.26L586.772,498.331L615.118,498.331L615.118,489.26L643.465,489.26L643.465,498.331L671.811,498.331L671.811,489.26L700.157,489.26L700.157,498.331L728.504,498.331L728.504,489.26L742.677,489.26L742.677,475.087L751.748,475.087L751.748,446.74L742.677,446.74L742.677,418.394L751.748,418.394L751.748,390.047L742.677,390.047L742.677,361.701L751.748,361.701L751.748,333.354L742.677,333.354L742.677,305.008L751.748,305.008L751.748,276.661L742.677,276.661L742.677,262.488L728.504,262.488L728.504,253.417L700.157,253.417L700.157,262.488L671.811,262.488L671.811,253.417L643.465,253.417L643.465,262.488L615.118,262.488L615.118,253.417L586.772,253.417L586.772,262.488L558.425,262.488L558.425,253.417L530.079,253.417L530.079,262.488L515.906,262.488Z" style="fill:none;stroke:rgb(255,0,0);stroke-width:0.28px;"/>
        <g id="top_labelLayer" transform="matrix(0.355908,0,0,0.355908,333.365,154.361)">
            <path d="M646.894,382.762L646.608,382.762C646.725,383.685 646.807,384.611 646.855,385.54C646.881,386.065 646.894,386.591 646.894,387.116L646.894,397.902L642.923,397.902L642.923,359.921L646.152,359.921L646.702,363.509L646.894,363.509C647.344,362.87 647.862,362.281 648.439,361.755C649.042,361.206 649.722,360.749 650.458,360.4C651.361,359.981 652.322,359.7 653.309,359.566C653.909,359.482 654.515,359.44 655.121,359.442C656.283,359.431 657.441,359.586 658.559,359.904C660.385,360.425 662,361.512 663.171,363.008C664.092,364.192 664.782,365.539 665.203,366.979C665.736,368.717 666.003,370.726 666.003,373.005C666.003,376.042 665.525,378.601 664.569,380.682C664.186,381.524 663.7,382.315 663.123,383.037C661.485,385.089 659.06,386.364 656.442,386.549C656.003,386.592 655.562,386.613 655.121,386.612C654.101,386.617 653.085,386.494 652.096,386.243C651.531,386.098 650.979,385.905 650.446,385.668C649.026,385.031 647.8,384.028 646.894,382.762ZM608.1,382.859L608.1,385.894C607.669,386.102 607.036,386.274 606.2,386.41C605.363,386.545 604.609,386.612 603.938,386.612C602.905,386.628 601.875,386.489 600.883,386.201C598.643,385.511 597.231,383.949 596.645,381.515C596.427,380.559 596.322,379.581 596.333,378.601L596.333,363.008L592.577,363.008L592.577,361.094L596.333,359.442L598.008,353.846L600.304,353.846L600.304,359.921L607.91,359.921L607.91,363.008L600.304,363.008L600.304,378.434C600.301,378.904 600.339,379.373 600.418,379.837C600.51,380.351 600.657,380.811 600.857,381.217C601.008,381.525 601.2,381.811 601.427,382.068C602.013,382.729 602.819,383.158 603.694,383.275C603.966,383.316 604.24,383.336 604.514,383.335C605.153,383.336 605.792,383.291 606.424,383.199C606.465,383.193 606.506,383.188 606.546,383.182C606.737,383.151 606.928,383.118 607.119,383.083C607.483,383.014 607.793,382.945 608.049,382.873C608.066,382.868 608.083,382.863 608.1,382.859ZM635.598,376.994C635.85,375.678 635.973,374.342 635.964,373.003C635.964,368.841 634.884,365.541 632.724,363.101C631.44,361.631 629.768,360.553 627.9,359.989C626.628,359.613 625.308,359.428 623.982,359.442C623.054,359.437 622.127,359.517 621.213,359.68C618.849,360.062 616.686,361.24 615.084,363.019C613.665,364.601 612.717,366.6 612.241,369.017C611.991,370.331 611.87,371.665 611.878,373.003C611.874,374.08 611.957,375.156 612.128,376.22C612.346,377.608 612.762,378.958 613.363,380.228C613.454,380.418 613.55,380.606 613.65,380.792C614.556,382.511 615.912,383.952 617.573,384.962C618.368,385.443 619.22,385.822 620.11,386.09C621.313,386.445 622.561,386.621 623.815,386.612C624.716,386.616 625.616,386.541 626.505,386.388C628.907,386.013 631.108,384.821 632.735,383.014C633.235,382.456 633.677,381.848 634.054,381.2C634.772,379.974 635.287,378.572 635.598,376.994ZM615.994,373.005C615.994,376.352 616.663,378.903 618.001,380.659C619.033,382.013 620.557,382.909 622.242,383.153C622.792,383.246 623.35,383.291 623.908,383.289C624.73,383.297 625.549,383.195 626.343,382.986C627.731,382.626 628.959,381.81 629.83,380.67C630.831,379.372 631.461,377.626 631.718,375.432C631.809,374.626 631.854,373.816 631.851,373.005C631.856,372.061 631.794,371.117 631.664,370.182C631.379,368.203 630.767,366.613 629.83,365.411C628.483,363.68 626.494,362.815 623.863,362.815C623.07,362.807 622.28,362.9 621.51,363.09C620.107,363.426 618.86,364.232 617.978,365.374C617.026,366.603 616.416,368.265 616.15,370.361C616.042,371.237 615.99,372.119 615.994,373.003L615.994,373.005ZM646.894,372.118L646.894,373.005C646.894,376.133 647.338,378.505 648.224,380.12C648.374,380.396 648.546,380.66 648.737,380.908C649.48,381.855 650.501,382.545 651.657,382.881C652.309,383.085 653.031,383.213 653.825,383.264C654.098,383.281 654.371,383.29 654.644,383.289C655.535,383.301 656.419,383.134 657.244,382.799C658.243,382.381 659.1,381.696 659.815,380.744C659.866,380.676 659.916,380.607 659.965,380.537C660.552,379.68 660.997,378.733 661.28,377.734C661.687,376.36 661.89,374.768 661.89,372.957C661.895,372.006 661.832,371.056 661.703,370.114C661.565,369.154 661.351,368.284 661.062,367.503C660.795,366.766 660.425,366.069 659.965,365.434C658.912,363.954 657.257,363.011 655.447,362.86C655.148,362.829 654.848,362.814 654.548,362.815C653.831,362.81 653.116,362.873 652.411,363.002C650.812,363.306 649.587,363.986 648.737,365.04C647.541,366.523 646.927,368.883 646.894,372.118Z" style="fill:rgb(119,119,119);stroke:rgb(119,119,119);stroke-width:2.01px;"/>
        </g>
        <path id="back_outsideCutPath" d="M0,141.732L0,186.236L9.071,186.236L9.071,214.583L0,214.583L0,242.929L9.071,242.929L9.071,271.276L0,271.276L0,315.78L23.244,315.78L23.244,306.709L51.591,306.709L51.591,315.78L79.937,315.78L79.937,306.709L108.283,306.709L108.283,315.78L136.63,315.78L136.63,306.709L164.976,306.709L164.976,315.78L193.323,315.78L193.323,306.709L221.669,306.709L221.669,315.78L244.913,315.78L244.913,271.276L235.843,271.276L235.843,242.929L244.913,242.929L244.913,214.583L235.843,214.583L235.843,186.236L244.913,186.236L244.913,157.89L244.913,141.732L221.669,141.732L221.669,150.803L193.323,150.803L193.323,141.732L164.976,141.732L164.976,150.803L136.63,150.803L136.63,141.732L108.283,141.732L108.283,150.803L79.937,150.803L79.937,141.732L51.591,141.732L51.591,150.803L23.244,150.803L23.244,141.732L0,141.732Z" style="fill:none;stroke:rgb(255,0,0);stroke-width:0.28px;"/>
        <g id="back_labelLayer" transform="matrix(0.400422,0,0,0.400422,-15.549,87.0097)">
            <path d="M146.288,232.274L146.421,232.274C146.555,232.085 146.693,231.899 146.835,231.715C147.296,231.116 147.9,230.396 148.649,229.555L154.667,223.18L158.014,223.18L150.469,231.117L158.542,241.809L155.123,241.809L148.547,233.005L146.421,234.842L146.421,241.809L143.634,241.809L143.634,215.362L146.421,215.362L146.421,229.385C146.42,229.562 146.418,229.739 146.412,229.915C146.397,230.495 146.357,231.258 146.29,232.203C146.289,232.226 146.289,232.25 146.288,232.274ZM89.195,239.411L88.991,239.411L88.396,241.809L86.372,241.809L86.372,215.362L89.195,215.362L89.195,221.788C89.195,223.179 89.152,224.433 89.067,225.55C89.065,225.588 89.062,225.626 89.059,225.663L89.195,225.663C90.508,223.804 92.457,222.874 95.04,222.874C95.86,222.867 96.677,222.976 97.466,223.2C98.759,223.568 99.905,224.332 100.743,225.383C101.404,226.216 101.899,227.169 102.2,228.189C102.44,228.96 102.605,229.808 102.694,230.732C102.749,231.312 102.776,231.895 102.776,232.478C102.781,233.41 102.707,234.341 102.555,235.261C102.254,237.019 101.645,238.467 100.726,239.607C99.36,241.302 97.465,242.15 95.04,242.15C94.316,242.153 93.594,242.064 92.891,241.886C92.489,241.783 92.097,241.646 91.718,241.478C90.714,241.03 89.873,240.341 89.195,239.411ZM121.249,241.809L119.16,241.809L118.599,239.159L118.463,239.159C118.169,239.53 117.853,239.883 117.516,240.216C117.176,240.551 116.837,240.834 116.498,241.067C116.242,241.245 115.969,241.4 115.685,241.529C114.923,241.869 114.006,242.069 112.932,242.13C112.696,242.143 112.46,242.15 112.224,242.15C110.377,242.15 108.93,241.673 107.881,240.721C107.173,240.07 106.684,239.215 106.483,238.275C106.364,237.744 106.306,237.202 106.311,236.659C106.23,234.71 107.325,232.892 109.086,232.053C110.465,231.319 112.357,230.891 114.761,230.769C114.952,230.758 115.144,230.749 115.336,230.743L118.497,230.641L118.497,229.487C118.497,228.025 118.182,226.946 117.553,226.25C116.923,225.553 115.918,225.204 114.537,225.204C113.824,225.21 113.114,225.298 112.422,225.468C111.776,225.621 111.1,225.84 110.395,226.125C110.014,226.281 109.638,226.449 109.267,226.63L108.4,224.473C109.318,223.974 110.324,223.583 111.419,223.299C112.492,223.018 113.597,222.876 114.707,222.874C115.314,222.871 115.92,222.915 116.521,223.004C117.848,223.209 118.889,223.658 119.645,224.354C120.484,225.127 120.994,226.265 121.175,227.769C121.226,228.21 121.251,228.653 121.249,229.096L121.249,241.809ZM139.487,223.809L138.62,226.208C138.175,226.031 137.721,225.879 137.259,225.754C137.035,225.693 136.809,225.637 136.582,225.587C136.288,225.521 135.992,225.466 135.694,225.422C135.311,225.368 134.955,225.34 134.626,225.34C131.264,225.34 129.396,227.244 129.022,231.052C128.973,231.56 128.949,232.07 128.951,232.58C128.947,233.246 128.991,233.911 129.084,234.57C129.283,235.915 129.699,237.009 130.334,237.849C131.258,239.072 132.626,239.683 134.439,239.683C135.542,239.679 136.639,239.519 137.699,239.21C138.213,239.062 138.72,238.886 139.215,238.683L139.215,241.18C138.594,241.496 137.935,241.729 137.254,241.875C136.647,242.009 135.992,242.094 135.289,242.13C135.029,242.143 134.768,242.15 134.507,242.15C131.81,242.15 129.723,241.319 128.245,239.658C127.457,238.757 126.878,237.693 126.547,236.543C126.298,235.717 126.138,234.808 126.068,233.816C126.04,233.416 126.026,233.015 126.026,232.614C126.026,229.498 126.777,227.09 128.279,225.391C129.328,224.212 130.732,223.404 132.279,223.089C133.072,222.918 133.882,222.834 134.694,222.84C135.59,222.84 136.485,222.936 137.381,223.129C138.266,223.32 138.962,223.544 139.47,223.801C139.476,223.804 139.482,223.807 139.487,223.809ZM94.632,225.238C94.117,225.235 93.604,225.281 93.098,225.377C92.514,225.492 92.001,225.679 91.559,225.938C91.137,226.183 90.766,226.507 90.468,226.894C89.721,227.865 89.303,229.42 89.212,231.559C89.2,231.865 89.194,232.172 89.195,232.478C89.195,235.095 89.631,236.968 90.502,238.096C91.031,238.768 91.758,239.258 92.58,239.496C93.196,239.689 93.902,239.786 94.7,239.786C95.24,239.792 95.779,239.72 96.299,239.573C97.234,239.304 98.043,238.707 98.575,237.892C99.425,236.628 99.85,234.812 99.85,232.444C99.853,231.809 99.82,231.175 99.751,230.545C99.591,229.159 99.242,228.049 98.705,227.214C98.663,227.149 98.62,227.084 98.575,227.021C97.951,226.148 97.011,225.553 95.956,225.363C95.52,225.276 95.076,225.235 94.632,225.238ZM118.429,234.332L118.429,232.648L115.608,232.767C115.055,232.784 114.503,232.824 113.953,232.886C112.549,233.05 111.483,233.359 110.755,233.813C109.969,234.283 109.44,235.088 109.318,235.996C109.283,236.226 109.266,236.459 109.267,236.693C109.264,237.004 109.298,237.314 109.366,237.617C109.478,238.091 109.684,238.492 109.984,238.819C110.05,238.891 110.12,238.959 110.194,239.023C110.53,239.306 110.922,239.514 111.345,239.632C111.647,239.723 111.981,239.781 112.346,239.805C112.492,239.815 112.638,239.82 112.785,239.82C113.349,239.824 113.911,239.767 114.463,239.649C115.446,239.432 116.266,239.008 116.923,238.377C117.583,237.735 118.042,236.914 118.242,236.015C118.366,235.501 118.429,234.94 118.429,234.332Z" style="fill:rgb(119,119,119);stroke:rgb(119,119,119);stroke-width:2.01px;"/>
        </g>
        <path id="right_outsideCutPath" d="M262.488,141.732L262.488,186.236L253.417,186.236L253.417,214.583L262.488,214.583L262.488,242.929L253.417,242.929L253.417,271.276L262.488,271.276L262.488,315.78L276.661,315.78L276.661,306.709L305.008,306.709L305.008,315.78L333.354,315.78L333.354,306.709L361.701,306.709L361.701,315.78L390.047,315.78L390.047,306.709L418.394,306.709L418.394,315.78L446.74,315.78L446.74,306.709L475.087,306.709L475.087,315.78L489.26,315.78L489.26,271.276L498.331,271.276L498.331,242.929L489.26,242.929L489.26,214.583L498.331,214.583L498.331,186.236L489.26,186.236L489.26,157.89L489.26,141.732L475.087,141.732L475.087,150.803L446.74,150.803L446.74,141.732L418.394,141.732L418.394,150.803L390.047,150.803L390.047,141.732L361.701,141.732L361.701,150.803L333.354,150.803L333.354,141.732L305.008,141.732L305.008,150.803L276.661,150.803L276.661,141.732L262.488,141.732Z" style="fill:none;stroke:rgb(255,0,0);stroke-width:0.28px;"/>
        <g id="right_labelLayer" transform="matrix(0.5,0,0,0.5,107.848,58.8674)">
            <path d="M397.519,237.798L394.699,237.798L394.699,225.748C394.701,225.33 394.669,224.912 394.605,224.498C394.462,223.591 394.147,222.874 393.661,222.347C392.97,221.6 391.888,221.227 390.416,221.227C389.881,221.223 389.346,221.27 388.82,221.366C387.658,221.587 386.759,222.073 386.124,222.823C385.779,223.244 385.509,223.721 385.328,224.235C385.006,225.098 384.824,226.17 384.78,227.449C384.774,227.652 384.771,227.855 384.772,228.059L384.772,237.798L381.951,237.798L381.951,211.351L384.772,211.351L384.772,219.356C384.773,219.681 384.767,220.006 384.755,220.331C384.744,220.636 384.726,220.919 384.701,221.182C384.684,221.373 384.663,221.564 384.636,221.754L384.806,221.754C385.362,220.859 386.151,220.153 387.176,219.637C387.922,219.267 388.727,219.028 389.554,218.931C389.93,218.885 390.309,218.862 390.688,218.863C391.332,218.859 391.974,218.909 392.61,219.013C393.292,219.13 393.902,219.315 394.441,219.566C394.944,219.796 395.407,220.108 395.81,220.487C396.357,221.019 396.772,221.67 397.023,222.389C397.354,223.289 397.519,224.374 397.519,225.646L397.519,237.798ZM371.684,219.169L378.125,219.169L378.125,220.955L374.675,221.363C374.822,221.549 374.955,221.746 375.072,221.953C375.189,222.157 375.3,222.38 375.403,222.622C375.446,222.719 375.487,222.818 375.525,222.917C375.775,223.557 375.9,224.28 375.9,225.085C375.906,225.765 375.806,226.441 375.602,227.089C375.305,228.007 374.761,228.825 374.029,229.453C372.906,230.432 371.407,230.971 369.53,231.069C369.32,231.079 369.109,231.084 368.898,231.083C368.547,231.085 368.195,231.066 367.846,231.026C367.674,231.006 367.503,230.979 367.333,230.947C366.131,231.582 365.53,232.381 365.53,233.345C365.53,233.838 365.728,234.208 366.123,234.454C366.135,234.461 366.147,234.469 366.16,234.476C366.298,234.553 366.446,234.613 366.599,234.655C366.905,234.746 367.292,234.803 367.758,234.828C367.945,234.837 368.133,234.842 368.32,234.842L371.616,234.842C372.204,234.838 372.79,234.879 373.371,234.964C374.556,235.147 375.521,235.531 376.265,236.115C377.093,236.764 377.642,237.705 377.799,238.745C377.86,239.1 377.89,239.459 377.889,239.82C377.898,240.54 377.779,241.256 377.538,241.934C377.164,242.96 376.485,243.807 375.503,244.474C375.471,244.495 375.439,244.516 375.406,244.536C374.73,244.968 373.996,245.301 373.226,245.526C371.836,245.949 370.149,246.161 368.167,246.161C367.458,246.164 366.749,246.119 366.046,246.027C364.61,245.833 363.438,245.424 362.531,244.8C361.929,244.4 361.432,243.86 361.083,243.227C360.773,242.654 360.598,242.004 360.558,241.277C360.554,241.171 360.552,241.065 360.553,240.959C360.533,239.878 360.921,238.828 361.638,238.02C362.108,237.492 362.685,237.071 363.331,236.786C363.77,236.589 364.229,236.438 364.7,236.336C364.249,236.131 363.858,235.815 363.563,235.417C363.542,235.389 363.521,235.361 363.501,235.332C363.207,234.919 363.039,234.428 363.019,233.921C363.017,233.865 363.016,233.809 363.016,233.753C363.013,233.4 363.067,233.049 363.178,232.713C363.268,232.447 363.397,232.196 363.56,231.968C363.718,231.75 363.896,231.549 364.093,231.367C364.282,231.189 364.498,231.014 364.74,230.842C364.914,230.719 365.093,230.601 365.275,230.491C364.411,230.132 363.666,229.535 363.127,228.77C363.056,228.671 362.988,228.57 362.923,228.467C362.388,227.622 362.079,226.653 362.027,225.655C362.017,225.505 362.013,225.354 362.013,225.204C362.007,224.555 362.08,223.908 362.228,223.277C362.469,222.203 363.036,221.228 363.849,220.487C364.512,219.899 365.298,219.465 366.148,219.217C366.997,218.958 367.964,218.829 369.051,218.829C369.529,218.828 370.006,218.858 370.48,218.92C370.887,218.973 371.29,219.056 371.684,219.169ZM411.883,235.468L411.883,237.628C411.776,237.679 411.666,237.722 411.554,237.759C411.319,237.836 411.034,237.905 410.698,237.966C410.642,237.976 410.586,237.985 410.53,237.994C409.935,238.09 409.399,238.139 408.923,238.139C408.189,238.15 407.457,238.052 406.752,237.847C404.597,237.181 403.52,235.38 403.52,232.444L403.52,221.363L400.85,221.363L400.85,220.003L403.52,218.829L404.708,214.852L406.341,214.852L406.341,219.169L411.746,219.169L411.746,221.363L406.341,221.363L406.341,232.325C406.341,233.447 406.607,234.309 407.14,234.91C407.557,235.379 408.129,235.682 408.75,235.766C408.943,235.795 409.137,235.809 409.331,235.809C409.786,235.81 410.24,235.777 410.689,235.712C410.718,235.708 410.748,235.703 410.777,235.698C410.913,235.677 411.049,235.654 411.185,235.63C411.444,235.581 411.663,235.531 411.843,235.48C411.856,235.476 411.869,235.472 411.883,235.468ZM350.592,219.033L350.201,221.652C349.558,221.511 348.979,221.427 348.463,221.403C348.362,221.399 348.261,221.397 348.16,221.397C346.791,221.388 345.48,221.954 344.548,222.956C344.461,223.045 344.376,223.137 344.293,223.231C343.224,224.456 342.689,225.98 342.689,227.803L342.689,237.798L339.866,237.798L339.866,219.169L342.196,219.169L342.519,222.619L342.655,222.619C342.959,222.078 343.315,221.568 343.718,221.097C344.137,220.608 344.619,220.177 345.152,219.815C346.127,219.158 347.198,218.829 348.364,218.829C348.751,218.829 349.138,218.846 349.523,218.88C349.882,218.911 350.239,218.962 350.592,219.033ZM356.896,219.169L356.896,237.798L354.076,237.798L354.076,219.169L356.896,219.169ZM370.715,237.373L367.333,237.373C366.942,237.371 366.551,237.404 366.165,237.472C365.723,237.554 365.326,237.685 364.975,237.866C364.748,237.983 364.536,238.126 364.343,238.292C363.837,238.727 363.492,239.32 363.365,239.975C363.3,240.288 363.269,240.606 363.271,240.925C363.266,241.284 363.33,241.641 363.458,241.977C363.659,242.483 364.021,242.898 364.547,243.221C364.894,243.429 365.268,243.589 365.658,243.697C366.361,243.9 367.209,244.001 368.201,244.001C368.819,244.003 369.436,243.976 370.052,243.918C371.505,243.775 372.642,243.449 373.462,242.94C373.818,242.724 374.139,242.454 374.414,242.141C374.915,241.564 375.184,240.821 375.168,240.058C375.168,239.434 375.049,238.928 374.811,238.538C374.666,238.303 374.468,238.105 374.233,237.96C374.035,237.84 373.822,237.747 373.601,237.682C373.149,237.544 372.567,237.453 371.854,237.407C371.475,237.384 371.095,237.373 370.715,237.373ZM365.428,227.543C365.564,227.745 365.724,227.929 365.905,228.093C366.642,228.762 367.668,229.096 368.983,229.096C369.525,229.103 370.065,229.038 370.59,228.903C371.819,228.571 372.598,227.802 372.929,226.596C373.057,226.103 373.119,225.595 373.113,225.085C373.121,224.524 373.052,223.965 372.906,223.424C372.551,222.18 371.742,221.394 370.48,221.066C369.973,220.94 369.453,220.88 368.932,220.887C367.915,220.887 367.078,221.097 366.42,221.516C366.222,221.643 366.037,221.791 365.871,221.958C365.491,222.345 365.21,222.818 365.051,223.336C364.936,223.693 364.86,224.088 364.825,224.521C364.809,224.726 364.801,224.931 364.802,225.136C364.802,226.119 365.011,226.921 365.428,227.543ZM353.877,213.605C353.85,213.775 353.836,213.948 353.837,214.121C353.837,214.756 353.996,215.229 354.314,215.541C354.476,215.703 354.671,215.827 354.886,215.906C355.085,215.976 355.294,216.011 355.504,216.009C355.958,216.009 356.348,215.853 356.675,215.541C357.004,215.229 357.168,214.756 357.168,214.121C357.168,214.019 357.163,213.918 357.154,213.817C357.137,213.63 357.103,213.461 357.052,213.31C356.979,213.082 356.849,212.876 356.675,212.712C356.36,212.411 355.939,212.246 355.504,212.253C355.456,212.252 355.408,212.253 355.36,212.255C354.969,212.274 354.597,212.433 354.314,212.703C354.089,212.917 353.943,213.217 353.877,213.605Z" style="fill:rgb(119,119,119);stroke:rgb(119,119,119);stroke-width:2.01px;"/>
        </g>
        <path id="bottom_outsideCutPath" d="M515.906,9.071L515.906,23.244L506.835,23.244L506.835,51.591L515.906,51.591L515.906,79.937L506.835,79.937L506.835,108.283L515.906,108.283L515.906,136.63L506.835,136.63L506.835,164.976L515.906,164.976L515.906,193.323L506.835,193.323L506.835,221.669L515.906,221.669L515.906,235.843L530.079,235.843L530.079,244.913L558.425,244.913L558.425,235.843L586.772,235.843L586.772,244.913L615.118,244.913L615.118,235.843L643.465,235.843L643.465,244.913L671.811,244.913L671.811,235.843L700.157,235.843L700.157,244.913L728.504,244.913L728.504,235.843L742.677,235.843L742.677,221.669L751.748,221.669L751.748,193.323L742.677,193.323L742.677,164.976L751.748,164.976L751.748,136.63L742.677,136.63L742.677,108.283L751.748,108.283L751.748,79.937L742.677,79.937L742.677,51.591L751.748,51.591L751.748,23.244L742.677,23.244L742.677,9.071L728.504,9.071L728.504,0L700.157,0L700.157,9.071L671.811,9.071L671.811,0L643.465,0L643.465,9.071L615.118,9.071L615.118,0L586.772,0L586.772,9.071L558.425,9.071L558.425,0L530.079,0L530.079,9.071L515.906,9.071Z" style="fill:none;stroke:rgb(255,0,0);stroke-width:0.28px;"/>
        <g id="bottom_labelLayer" transform="matrix(0.384812,0,0,0.384812,324.866,3.29271)">
            <path d="M709.869,140.825L705.898,140.825L705.898,123.772C705.901,123.195 705.863,122.619 705.781,122.049C705.693,121.463 705.557,120.934 705.373,120.461C705.182,119.956 704.907,119.486 704.56,119.072C704.044,118.479 703.37,118.044 702.618,117.816C701.975,117.609 701.236,117.505 700.398,117.505C699.7,117.499 699.003,117.566 698.318,117.703C697.494,117.875 696.772,118.157 696.152,118.551C695.687,118.845 695.271,119.21 694.919,119.633C694.433,120.234 694.057,120.915 693.808,121.646C693.373,122.867 693.154,124.367 693.15,126.147C693.15,126.161 693.15,126.174 693.15,126.187L693.15,140.825L689.179,140.825L689.179,123.772C689.183,123.195 689.144,122.619 689.063,122.049C688.976,121.463 688.84,120.934 688.654,120.461C688.463,119.956 688.188,119.486 687.841,119.072C687.331,118.487 686.667,118.056 685.925,117.828C685.466,117.677 684.955,117.578 684.394,117.533C684.148,117.514 683.901,117.504 683.654,117.505C682.97,117.5 682.287,117.566 681.616,117.703C680.777,117.881 680.045,118.177 679.419,118.593C678.95,118.906 678.534,119.294 678.189,119.741C677.762,120.31 677.429,120.943 677.203,121.618C676.706,123.026 676.457,124.843 676.457,127.071L676.457,140.825L672.486,140.825L672.486,114.61L675.714,114.61L676.361,118.199L676.551,118.199C677.301,116.922 678.401,115.884 679.72,115.209C680.876,114.607 682.144,114.252 683.444,114.165C683.729,114.144 684.015,114.134 684.3,114.134C688.399,114.134 691.078,115.617 692.337,118.582L692.529,118.582C693.271,117.286 694.35,116.214 695.65,115.481C695.741,115.428 695.833,115.377 695.925,115.328C697.409,114.532 699.099,114.134 700.997,114.134C701.836,114.128 702.673,114.198 703.5,114.344C704.427,114.516 705.253,114.792 705.977,115.172C706.599,115.494 707.166,115.914 707.655,116.416C708.306,117.106 708.806,117.924 709.123,118.817C709.388,119.524 709.582,120.317 709.705,121.195C709.818,122.033 709.873,122.878 709.869,123.724L709.869,140.825ZM552.685,137.452L552.396,137.452L551.56,140.825L548.714,140.825L548.714,103.609L552.685,103.609L552.685,112.649C552.685,114.609 552.625,116.374 552.504,117.947C552.5,117.999 552.496,118.051 552.492,118.103L552.685,118.103C554.208,115.919 556.621,114.517 559.273,114.276C559.816,114.211 560.364,114.179 560.911,114.18C562.066,114.168 563.216,114.322 564.327,114.636C566.145,115.155 567.757,116.23 568.936,117.709C569.867,118.882 570.564,120.224 570.988,121.66C571.525,123.395 571.793,125.407 571.793,127.695C571.793,130.732 571.315,133.291 570.359,135.371C569.976,136.214 569.489,137.005 568.911,137.727C567.273,139.778 564.85,141.053 562.232,141.239C561.793,141.282 561.352,141.304 560.911,141.304C559.891,141.309 558.875,141.184 557.887,140.933C557.322,140.787 556.77,140.595 556.237,140.357C554.817,139.72 553.591,138.718 552.685,137.452ZM620.371,137.548L620.371,140.584C619.94,140.792 619.306,140.964 618.469,141.1C617.631,141.236 616.878,141.304 616.209,141.304C615.176,141.319 614.146,141.18 613.154,140.89C610.914,140.201 609.501,138.639 608.913,136.205C608.696,135.249 608.592,134.271 608.604,133.291L608.604,117.697L604.848,117.697L604.848,115.784L608.604,114.134L610.277,108.536L612.573,108.536L612.573,114.61L620.178,114.61L620.178,117.697L612.573,117.697L612.573,133.123C612.57,133.594 612.609,134.063 612.689,134.527C612.78,135.041 612.926,135.501 613.128,135.907C613.279,136.215 613.471,136.501 613.698,136.757C614.285,137.419 615.09,137.847 615.966,137.965C616.236,138.007 616.509,138.028 616.782,138.027C617.421,138.028 618.06,137.982 618.693,137.889C618.733,137.883 618.774,137.877 618.814,137.871C619.007,137.841 619.199,137.808 619.39,137.772C619.755,137.704 620.064,137.634 620.317,137.563C620.335,137.558 620.353,137.553 620.371,137.548ZM637.662,137.548L637.662,140.584C637.231,140.792 636.597,140.964 635.76,141.1C634.923,141.236 634.17,141.304 633.501,141.304C632.467,141.319 631.437,141.18 630.445,140.89C628.206,140.201 626.793,138.639 626.207,136.205C625.989,135.249 625.885,134.271 625.895,133.291L625.895,117.697L622.14,117.697L622.14,115.784L625.895,114.134L627.568,108.536L629.864,108.536L629.864,114.61L637.472,114.61L637.472,117.697L629.864,117.697L629.864,133.123C629.861,133.594 629.9,134.063 629.98,134.527C630.073,135.041 630.219,135.501 630.42,135.907C630.571,136.215 630.762,136.501 630.989,136.757C631.576,137.419 632.381,137.847 633.257,137.965C633.527,138.007 633.8,138.028 634.073,138.027C634.713,138.028 635.351,137.982 635.984,137.889C636.026,137.883 636.067,137.877 636.109,137.871C636.3,137.841 636.491,137.808 636.681,137.772C637.046,137.704 637.355,137.634 637.608,137.563C637.626,137.558 637.644,137.553 637.662,137.548ZM600.99,131.683C601.242,130.369 601.364,129.033 601.356,127.695C601.356,123.532 600.276,120.231 598.116,117.791C596.831,116.322 595.158,115.244 593.289,114.681C592.018,114.306 590.699,114.121 589.374,114.134C588.446,114.129 587.519,114.208 586.604,114.369C584.241,114.751 582.078,115.93 580.476,117.709C579.057,119.292 578.109,121.292 577.633,123.707C577.383,125.021 577.261,126.357 577.27,127.695C577.266,128.773 577.349,129.849 577.519,130.912C577.738,132.3 578.154,133.649 578.755,134.918C578.846,135.108 578.942,135.296 579.042,135.482C579.948,137.201 581.304,138.642 582.965,139.652C583.76,140.133 584.612,140.512 585.502,140.78C586.704,141.136 587.953,141.313 589.207,141.304C590.108,141.307 591.008,141.232 591.897,141.077C594.299,140.702 596.5,139.511 598.127,137.704C598.627,137.147 599.068,136.54 599.445,135.893C600.163,134.665 600.678,133.261 600.99,131.683ZM665.161,131.683C665.413,130.369 665.535,129.033 665.527,127.695C665.527,123.532 664.446,120.231 662.284,117.791C660.999,116.322 659.327,115.244 657.459,114.681C656.189,114.306 654.869,114.121 653.545,114.134C652.615,114.129 651.687,114.208 650.772,114.369C648.41,114.752 646.248,115.93 644.647,117.709C643.227,119.292 642.28,121.292 641.803,123.707C641.553,125.021 641.432,126.357 641.441,127.695C641.436,128.773 641.52,129.849 641.69,130.912C641.908,132.3 642.323,133.648 642.923,134.918C643.015,135.108 643.111,135.296 643.212,135.482C644.118,137.2 645.473,138.642 647.133,139.652C647.928,140.133 648.782,140.512 649.672,140.78C650.875,141.136 652.123,141.313 653.377,141.304C654.279,141.307 655.179,141.232 656.067,141.077C658.47,140.702 660.671,139.511 662.298,137.704C662.797,137.147 663.239,136.54 663.616,135.893C664.332,134.665 664.847,133.261 665.161,131.683ZM581.386,127.695C581.386,131.042 582.055,133.593 583.393,135.349C584.424,136.702 585.947,137.598 587.631,137.843C588.182,137.936 588.741,137.981 589.3,137.979C590.122,137.987 590.941,137.885 591.735,137.676C593.123,137.315 594.351,136.5 595.222,135.36C596.223,134.062 596.853,132.316 597.11,130.122C597.201,129.316 597.245,128.506 597.243,127.695C597.248,126.751 597.185,125.807 597.056,124.872C596.769,122.893 596.157,121.303 595.222,120.101C593.874,118.37 591.885,117.505 589.255,117.505C588.462,117.497 587.672,117.59 586.902,117.78C585.499,118.116 584.252,118.922 583.37,120.064C582.418,121.293 581.808,122.955 581.542,125.05C581.434,125.928 581.382,126.811 581.386,127.695ZM645.554,127.695C645.554,131.042 646.224,133.593 647.563,135.349C648.595,136.702 650.117,137.598 651.801,137.843C652.353,137.936 652.911,137.981 653.471,137.979C654.292,137.987 655.111,137.885 655.906,137.676C657.294,137.315 658.522,136.5 659.392,135.36C660.394,134.062 661.023,132.316 661.28,130.122C661.372,129.316 661.416,128.506 661.414,127.695C661.418,126.751 661.354,125.807 661.224,124.872C660.938,122.893 660.328,121.303 659.392,120.101C658.045,118.37 656.055,117.505 653.423,117.505C652.631,117.497 651.841,117.59 651.073,117.78C649.67,118.116 648.423,118.922 647.541,120.064C646.588,121.293 645.978,122.955 645.71,125.05C645.602,125.928 645.55,126.811 645.554,127.695ZM560.339,117.505C559.613,117.499 558.889,117.565 558.176,117.7C557.356,117.863 556.634,118.126 556.01,118.491C555.416,118.836 554.895,119.293 554.477,119.837C554.053,120.407 553.721,121.039 553.493,121.711C553.051,122.951 552.79,124.514 552.711,126.4C552.693,126.831 552.684,127.263 552.685,127.695C552.685,130.823 553.127,133.194 554.012,134.81C554.162,135.086 554.333,135.349 554.525,135.598C555.269,136.545 556.291,137.235 557.447,137.571C558.099,137.775 558.822,137.903 559.616,137.954C559.888,137.971 560.16,137.979 560.432,137.979C561.192,137.987 561.949,137.886 562.68,137.679C563.998,137.301 565.137,136.46 565.886,135.312C566.381,134.559 566.761,133.736 567.014,132.871C567.25,132.1 567.423,131.247 567.533,130.311C567.634,129.427 567.683,128.537 567.68,127.647C567.684,126.754 567.637,125.861 567.539,124.974C567.314,123.024 566.823,121.461 566.067,120.285C566.009,120.194 565.949,120.104 565.886,120.016C565.009,118.788 563.686,117.951 562.201,117.683C561.588,117.56 560.964,117.501 560.339,117.505Z" style="fill:rgb(119,119,119);stroke:rgb(119,119,119);stroke-width:2.01px;"/>
        </g>
        <g transform="matrix(1,0,0,1,494.291,-24.4233)">
            <circle cx="34.92" cy="243.36" r="2.835" style="fill:none;stroke:rgb(255,0,0);stroke-width:0.28px;stroke-linecap:butt;stroke-linejoin:round;stroke-miterlimit:1.41421;"/>
        </g>
        <g transform="matrix(1,0,0,1,494.291,-24.4233)">
            <circle cx="235.08" cy="243.72" r="2.835" style="fill:none;stroke:rgb(255,0,0);stroke-width:0.28px;stroke-linecap:butt;stroke-linejoin:round;stroke-miterlimit:1.41421;"/>
        </g>
        <g transform="matrix(1,0,0,1,494.291,-24.4233)">
            <circle cx="234.36" cy="50.4" r="2.835" style="fill:none;stroke:rgb(255,0,0);stroke-width:0.28px;stroke-linecap:butt;stroke-linejoin:round;stroke-miterlimit:1.41421;"/>
        </g>
        <g transform="matrix(1,0,0,1,494.291,-24.4233)">
            <circle cx="35.28" cy="50.04" r="2.835" style="fill:none;stroke:rgb(255,0,0);stroke-width:0.28px;stroke-linecap:butt;stroke-linejoin:round;stroke-miterlimit:1.41421;"/>
        </g>
        <g transform="matrix(0.818961,0,0,2.02485,-62.2191,252.921)">
            <rect x="139.345" y="47.421" width="176.525" height="48.998" style="fill:none;stroke:rgb(255,0,0);stroke-width:0.18px;stroke-linejoin:round;stroke-miterlimit:1.5;"/>
        </g>
        <g transform="matrix(0.100909,0,0,0.100909,570.99,368.776)">
            <circle cx="225.853" cy="66.58" r="42.137" style="fill:none;stroke:rgb(255,0,0);stroke-width:2.81px;stroke-linejoin:round;stroke-miterlimit:1.5;"/>
        </g>
        <g transform="matrix(0.100909,0,0,0.100909,641.856,368.776)">
            <circle cx="225.853" cy="66.58" r="42.137" style="fill:none;stroke:rgb(255,0,0);stroke-width:2.81px;stroke-linejoin:round;stroke-miterlimit:1.5;"/>
        </g>
        <g transform="matrix(0.437682,0,0,0.825289,481.663,404.456)">
            <rect x="321.104" y="34.062" width="32.382" height="17.174" style="fill:none;stroke:rgb(255,0,0);stroke-width:0.43px;stroke-linejoin:round;stroke-miterlimit:1.5;"/>
        </g>
        <g transform="matrix(1.31305,0,0,0.825289,186.4,340.296)">
            <rect x="321.104" y="34.062" width="32.382" height="17.174" style="fill:none;stroke:rgb(255,0,0);stroke-width:0.26px;stroke-linejoin:round;stroke-miterlimit:1.5;"/>
        </g>
        <g transform="matrix(0.437682,0,0,0.825289,481.663,276.897)">
            <rect x="321.104" y="34.062" width="32.382" height="17.174" style="fill:none;stroke:rgb(255,0,0);stroke-width:0.43px;stroke-linejoin:round;stroke-miterlimit:1.5;"/>
        </g>
        <g transform="matrix(0.700291,0,0,1.65058,-191.381,210.544)">
            <rect x="321.104" y="34.062" width="32.382" height="17.174" style="fill:none;stroke:rgb(255,0,0);stroke-width:0.22px;stroke-linejoin:round;stroke-miterlimit:1.5;"/>
        </g>
        <g transform="matrix(0.218841,-0.379044,0.714721,0.412645,580.23,518.014)">
            <rect x="321.104" y="34.062" width="32.382" height="17.174" style="fill:none;stroke:rgb(255,0,0);stroke-width:0.43px;stroke-linejoin:round;stroke-miterlimit:1.5;"/>
        </g>
        <g transform="matrix(0.218841,-0.379044,0.714721,0.412645,469.76,454.235)">
            <rect x="321.104" y="34.062" width="32.382" height="17.174" style="fill:none;stroke:rgb(255,0,0);stroke-width:0.43px;stroke-linejoin:round;stroke-miterlimit:1.5;"/>
        </g>
        <g transform="matrix(0.218841,0.379044,-0.714721,0.412645,530.725,262.315)">
            <rect x="321.104" y="34.062" width="32.382" height="17.174" style="fill:none;stroke:rgb(255,0,0);stroke-width:0.43px;stroke-linejoin:round;stroke-miterlimit:1.5;"/>
        </g>
        <g transform="matrix(0.218841,0.379044,-0.714721,0.412645,641.194,198.536)">
            <rect x="321.104" y="34.062" width="32.382" height="17.174" style="fill:none;stroke:rgb(255,0,0);stroke-width:0.43px;stroke-linejoin:round;stroke-miterlimit:1.5;"/>
        </g>
        <g transform="matrix(0.379044,0.218841,-0.412645,0.714721,487.151,326.813)">
            <rect x="321.104" y="34.062" width="32.382" height="17.174" style="fill:none;stroke:rgb(255,0,0);stroke-width:0.43px;stroke-linejoin:round;stroke-miterlimit:1.5;"/>
        </g>
        <g transform="matrix(0.379044,0.218841,-0.412645,0.714721,550.931,216.343)">
            <rect x="321.104" y="34.062" width="32.382" height="17.174" style="fill:none;stroke:rgb(255,0,0);stroke-width:0.43px;stroke-linejoin:round;stroke-miterlimit:1.5;"/>
        </g>
        <g transform="matrix(0.379044,-0.218841,0.412645,0.714721,515.733,474.44)">
            <rect x="321.104" y="34.062" width="32.382" height="17.174" style="fill:none;stroke:rgb(255,0,0);stroke-width:0.43px;stroke-linejoin:round;stroke-miterlimit:1.5;"/>
        </g>
        <g transform="matrix(0.379044,-0.218841,0.412645,0.714721,451.953,363.971)">
            <rect x="321.104" y="34.062" width="32.382" height="17.174" style="fill:none;stroke:rgb(255,0,0);stroke-width:0.43px;stroke-linejoin:round;stroke-miterlimit:1.5;"/>
        </g>
        <g transform="matrix(0.437682,0,0,0.825289,545.443,340.676)">
            <rect x="321.104" y="34.062" width="32.382" height="17.174" style="fill:none;stroke:rgb(255,0,0);stroke-width:0.43px;stroke-linejoin:round;stroke-miterlimit:1.5;"/>
        </g>
        <g transform="matrix(0.437682,0,0,0.825289,417.884,340.676)">
            <rect x="321.104" y="34.062" width="32.382" height="17.174" style="fill:none;stroke:rgb(255,0,0);stroke-width:0.43px;stroke-linejoin:round;stroke-miterlimit:1.5;"/>
        </g>
    </g>
</svg>
